<mxfile host="app.diagrams.net" agent="Mozilla/5.0 (Windows NT 10.0; Win64; x64) AppleWebKit/537.36 (KHTML, like Gecko) Chrome/135.0.0.0 Safari/537.36" version="26.2.15">
  <diagram name="Page-1" id="clEkvmz_u6TKKRG4fEDz">
    <mxGraphModel dx="785" dy="451" grid="1" gridSize="10" guides="1" tooltips="1" connect="1" arrows="1" fold="1" page="1" pageScale="1" pageWidth="850" pageHeight="1100" math="0" shadow="0">
      <root>
        <mxCell id="0" />
        <mxCell id="1" parent="0" />
        <mxCell id="U9tkefIiIEA9Mw4AH6nH-1" value="&lt;h1 style=&quot;margin-top: 0px;&quot;&gt;Elastic stack&lt;/h1&gt;" style="text;html=1;whiteSpace=wrap;overflow=hidden;rounded=0;" vertex="1" parent="1">
          <mxGeometry x="290" y="60" width="230" height="50" as="geometry" />
        </mxCell>
        <mxCell id="U9tkefIiIEA9Mw4AH6nH-5" style="edgeStyle=orthogonalEdgeStyle;rounded=0;orthogonalLoop=1;jettySize=auto;html=1;exitX=1;exitY=0.5;exitDx=0;exitDy=0;" edge="1" parent="1" source="U9tkefIiIEA9Mw4AH6nH-2" target="U9tkefIiIEA9Mw4AH6nH-3">
          <mxGeometry relative="1" as="geometry" />
        </mxCell>
        <mxCell id="U9tkefIiIEA9Mw4AH6nH-2" value="&lt;font style=&quot;font-size: 14px;&quot;&gt;Kafka&lt;/font&gt;" style="rounded=1;whiteSpace=wrap;html=1;" vertex="1" parent="1">
          <mxGeometry x="120" y="200" width="130" height="60" as="geometry" />
        </mxCell>
        <mxCell id="U9tkefIiIEA9Mw4AH6nH-6" style="edgeStyle=orthogonalEdgeStyle;rounded=0;orthogonalLoop=1;jettySize=auto;html=1;exitX=1;exitY=0.5;exitDx=0;exitDy=0;entryX=0;entryY=0.5;entryDx=0;entryDy=0;" edge="1" parent="1" source="U9tkefIiIEA9Mw4AH6nH-3" target="U9tkefIiIEA9Mw4AH6nH-4">
          <mxGeometry relative="1" as="geometry" />
        </mxCell>
        <mxCell id="U9tkefIiIEA9Mw4AH6nH-3" value="&lt;font style=&quot;font-size: 14px;&quot;&gt;Logstash&lt;/font&gt;" style="rounded=1;whiteSpace=wrap;html=1;" vertex="1" parent="1">
          <mxGeometry x="345" y="200" width="120" height="60" as="geometry" />
        </mxCell>
        <mxCell id="U9tkefIiIEA9Mw4AH6nH-4" value="&lt;font style=&quot;font-size: 14px;&quot;&gt;Elasticsearch&lt;/font&gt;" style="rounded=1;whiteSpace=wrap;html=1;" vertex="1" parent="1">
          <mxGeometry x="560" y="200" width="120" height="60" as="geometry" />
        </mxCell>
        <mxCell id="U9tkefIiIEA9Mw4AH6nH-7" value="&lt;font style=&quot;font-size: 14px;&quot;&gt;Consume from sink topic&lt;/font&gt;" style="text;html=1;align=center;verticalAlign=middle;whiteSpace=wrap;rounded=0;" vertex="1" parent="1">
          <mxGeometry x="260" y="180" width="60" height="30" as="geometry" />
        </mxCell>
        <mxCell id="U9tkefIiIEA9Mw4AH6nH-8" value="&lt;font style=&quot;font-size: 14px;&quot;&gt;Send data to elasticsearch index&lt;/font&gt;" style="text;html=1;align=center;verticalAlign=middle;whiteSpace=wrap;rounded=0;" vertex="1" parent="1">
          <mxGeometry x="480" y="180" width="60" height="30" as="geometry" />
        </mxCell>
        <mxCell id="U9tkefIiIEA9Mw4AH6nH-10" value="&lt;h1 style=&quot;margin-top: 0px;&quot;&gt;&lt;span style=&quot;background-color: transparent; color: light-dark(rgb(0, 0, 0), rgb(255, 255, 255));&quot;&gt;IP Threat Index data:&lt;br&gt;&lt;br&gt;&lt;font size=&quot;3&quot;&gt;&lt;span style=&quot;font-weight: normal;&quot;&gt;{&lt;/span&gt;&lt;/font&gt;&lt;/span&gt;&lt;/h1&gt;&lt;div&gt;&lt;span style=&quot;background-color: transparent; color: light-dark(rgb(0, 0, 0), rgb(255, 255, 255));&quot;&gt;&lt;font size=&quot;3&quot;&gt;&lt;span style=&quot;font-weight: normal;&quot;&gt;&amp;nbsp; &quot;ip&quot;: &quot;1.10.142.60&quot;&lt;/span&gt;&lt;/font&gt;&lt;/span&gt;&lt;/div&gt;&lt;div&gt;&lt;span style=&quot;background-color: transparent; color: light-dark(rgb(0, 0, 0), rgb(255, 255, 255));&quot;&gt;&lt;font size=&quot;3&quot;&gt;&lt;span style=&quot;font-weight: normal;&quot;&gt;&amp;nbsp; &quot;threat feed &quot;: &quot;Cisco Talos&quot;&lt;/span&gt;&lt;/font&gt;&lt;/span&gt;&lt;/div&gt;&lt;h1 style=&quot;margin-top: 0px;&quot;&gt;&lt;span style=&quot;background-color: transparent; color: light-dark(rgb(0, 0, 0), rgb(255, 255, 255));&quot;&gt;&lt;font size=&quot;3&quot;&gt;&lt;span style=&quot;font-weight: normal;&quot;&gt;}&lt;/span&gt;&lt;/font&gt;&lt;/span&gt;&lt;/h1&gt;" style="text;html=1;whiteSpace=wrap;overflow=hidden;rounded=0;" vertex="1" parent="1">
          <mxGeometry x="300" y="310" width="270" height="220" as="geometry" />
        </mxCell>
      </root>
    </mxGraphModel>
  </diagram>
</mxfile>
